<svg width="40" height="45" viewBox="0 0 40 45" fill="none" xmlns="http://www.w3.org/2000/svg">
<path d="M20 45C23.1536 45 25.7116 42.4819 25.7116 39.375H14.2884C14.2884 42.4819 16.8464 45 20 45ZM39.2312 31.8419C37.5062 30.0173 34.2785 27.2725 34.2785 18.2812C34.2785 11.4521 29.4143 5.98535 22.8553 4.64414V2.8125C22.8553 1.25947 21.5768 0 20 0C18.4232 0 17.1447 1.25947 17.1447 2.8125V4.64414C10.5857 5.98535 5.72147 11.4521 5.72147 18.2812C5.72147 27.2725 2.4938 30.0173 0.768809 31.8419C0.233097 32.4088 -0.00440254 33.0864 6.17309e-05 33.75C0.00988313 35.1914 1.15899 36.5625 2.86612 36.5625H37.1339C38.841 36.5625 39.991 35.1914 39.9999 33.75C40.0044 33.0864 39.7669 32.4079 39.2312 31.8419Z" fill="black"/>
</svg>
