<svg width="33" height="38" viewBox="0 0 33 38" fill="none" xmlns="http://www.w3.org/2000/svg">
<path d="M2.0625 16.625H14.4375V2.375H2.0625V16.625ZM6.1875 7.125H10.3125V11.875H6.1875V7.125ZM18.5625 2.375V16.625H30.9375V2.375H18.5625ZM26.8125 11.875H22.6875V7.125H26.8125V11.875ZM2.0625 35.625H14.4375V21.375H2.0625V35.625ZM6.1875 26.125H10.3125V30.875H6.1875V26.125ZM28.875 21.375H30.9375V30.875H24.75V28.5H22.6875V35.625H18.5625V21.375H24.75V23.75H28.875V21.375ZM28.875 33.25H30.9375V35.625H28.875V33.25ZM24.75 33.25H26.8125V35.625H24.75V33.25Z" fill="black"/>
</svg>
