<svg width="42" height="43" viewBox="0 0 42 43" fill="none" xmlns="http://www.w3.org/2000/svg">
<g clip-path="url(#clip0_292_1605)">
<path d="M21 24.1875C27.5215 24.1875 32.8125 18.7705 32.8125 12.0938C32.8125 5.41699 27.5215 0 21 0C14.4785 0 9.1875 5.41699 9.1875 12.0938C9.1875 18.7705 14.4785 24.1875 21 24.1875ZM31.5 26.875H26.9801C25.159 27.7316 23.1328 28.2188 21 28.2188C18.8672 28.2188 16.8492 27.7316 15.0199 26.875H10.5C4.70039 26.875 0 31.6873 0 37.625V38.9688C0 41.1943 1.76367 43 3.9375 43H38.0625C40.2363 43 42 41.1943 42 38.9688V37.625C42 31.6873 37.2996 26.875 31.5 26.875Z" fill="black"/>
</g>
<defs>
<clipPath id="clip0_292_1605">
<rect width="42" height="43" fill="white"/>
</clipPath>
</defs>
</svg>
