<svg width="115" height="48" viewBox="0 0 115 48" fill="none" xmlns="http://www.w3.org/2000/svg">
<path d="M4.09104 8.72816H110.458C112.718 8.72816 114.549 7.85983 114.549 6.78857V1.93959C114.549 0.868331 112.718 0 110.458 0H4.09104C1.83151 0 0 0.868331 0 1.93959V6.78857C0 7.85983 1.83151 8.72816 4.09104 8.72816ZM4.09104 28.1241H110.458C112.718 28.1241 114.549 27.2558 114.549 26.1845V21.3355C114.549 20.2643 112.718 19.3959 110.458 19.3959H4.09104C1.83151 19.3959 0 20.2643 0 21.3355V26.1845C0 27.2558 1.83151 28.1241 4.09104 28.1241ZM4.09104 47.52H110.458C112.718 47.52 114.549 46.6517 114.549 45.5804V40.7314C114.549 39.6602 112.718 38.7918 110.458 38.7918H4.09104C1.83151 38.7918 0 39.6602 0 40.7314V45.5804C0 46.6517 1.83151 47.52 4.09104 47.52Z" fill="black"/>
</svg>
